{"glyphs":{"0":{"ha":347,"x_min":0,"x_max":327,"o":"m 327 707 l 327 647 l 327 60 q 323 36 327 47 q 310 17 318 26 q 291 5 302 9 q 268 0 280 0 l 164 0 l 60 0 q 36 5 47 0 q 17 17 26 9 q 5 36 9 26 q 0 60 0 47 l 0 1329 q 5 1353 0 1342 q 17 1371 9 1363 q 36 1384 26 1380 q 60 1389 47 1389 l 164 1389 l 268 1389 q 291 1384 280 1389 q 310 1371 302 1380 q 323 1353 318 1363 q 327 1329 327 1342 l 327 766 l 327 707 m 164 1270 l 154 1270 l 154 766 l 174 766 l 174 1270 l 164 1270 m 164 119 l 174 119 l 174 647 l 154 647 l 154 119 l 164 119 z "},"1":{"ha":194,"x_min":0,"x_max":174,"o":"m 174 1389 l 174 0 l 20 0 l 20 1270 l 0 1270 l 0 1389 l 174 1389 z "},"2":{"ha":347,"x_min":0,"x_max":327,"o":"m 154 119 l 174 119 l 174 387 l 327 387 l 327 60 q 323 36 327 47 q 310 17 318 26 q 291 5 302 9 q 268 0 280 0 l 60 0 q 36 5 47 0 q 17 17 26 9 q 5 36 9 26 q 0 60 0 47 l 0 526 l 174 526 l 174 1270 l 154 1270 l 154 546 l 0 546 l 0 1329 q 5 1353 0 1342 q 17 1371 9 1363 q 36 1384 26 1380 q 60 1389 47 1389 l 268 1389 q 291 1384 280 1389 q 310 1371 302 1380 q 323 1353 318 1363 q 327 1329 327 1342 l 327 407 l 154 407 l 154 119 z "},"3":{"ha":347,"x_min":0,"x_max":327,"o":"m 327 766 q 323 743 327 754 q 310 724 318 732 q 291 712 302 716 q 268 707 280 707 q 291 702 280 707 q 310 689 302 697 q 323 670 318 681 q 327 647 327 660 l 327 60 q 323 36 327 47 q 310 17 318 26 q 291 5 302 9 q 268 0 280 0 l 60 0 q 36 5 47 0 q 17 17 26 9 q 5 36 9 26 q 0 60 0 47 l 0 627 l 154 627 l 154 119 l 164 119 l 174 119 l 174 647 l 1 647 l 1 766 l 174 766 l 174 1270 l 164 1270 l 154 1270 l 154 786 l 0 786 l 0 1329 q 5 1353 0 1342 q 17 1371 9 1363 q 36 1384 26 1380 q 60 1389 47 1389 l 268 1389 q 291 1384 280 1389 q 310 1371 302 1380 q 323 1353 318 1363 q 327 1329 327 1342 l 327 766 l 327 766 z "},"4":{"ha":347,"x_min":0,"x_max":347,"o":"m 347 323 l 347 263 l 347 204 l 327 204 l 327 0 l 174 0 l 174 204 l 60 204 q 36 208 47 204 q 17 221 26 213 q 5 240 9 229 q 0 263 0 251 l 0 1389 l 154 1389 l 154 323 l 174 323 l 174 1389 l 327 1389 l 327 323 l 347 323 z "},"5":{"ha":347,"x_min":0,"x_max":327,"o":"m 327 1389 l 327 1270 l 154 1270 l 154 1250 l 327 1250 l 327 60 q 323 36 327 47 q 310 17 318 26 q 291 5 302 9 q 268 0 280 0 l 60 0 q 36 5 47 0 q 17 17 26 9 q 5 36 9 26 q 0 60 0 47 l 0 1111 l 154 1111 l 154 119 l 174 119 l 174 1131 l 0 1131 l 0 1329 q 5 1353 0 1342 q 17 1371 9 1363 q 36 1384 26 1380 q 60 1389 47 1389 l 327 1389 z "},"6":{"ha":347,"x_min":0,"x_max":327,"o":"m 327 766 l 327 60 q 323 36 327 47 q 310 17 318 26 q 291 5 302 9 q 268 0 280 0 l 60 0 q 36 5 47 0 q 17 17 26 9 q 5 36 9 26 q 0 60 0 47 l 0 1329 q 5 1353 0 1342 q 17 1371 9 1363 q 36 1384 26 1380 q 60 1389 47 1389 l 268 1389 q 291 1384 280 1389 q 310 1371 302 1380 q 323 1353 318 1363 q 327 1329 327 1342 l 327 786 l 174 786 l 174 1270 l 154 1270 l 154 766 l 327 766 m 174 119 l 174 647 l 154 647 l 154 119 l 174 119 z "},"7":{"ha":213,"x_min":0,"x_max":193,"o":"m 174 766 l 193 766 l 193 647 l 174 647 l 174 0 l 20 0 l 20 647 l 0 647 l 0 766 l 20 766 l 20 1270 l 0 1270 l 0 1389 l 174 1389 l 174 766 l 174 766 z "},"8":{"ha":347,"x_min":0,"x_max":327,"o":"m 327 766 q 323 743 327 754 q 310 724 318 732 q 291 712 302 716 q 268 707 280 707 q 291 702 280 707 q 310 689 302 697 q 323 670 318 681 q 327 647 327 660 l 327 60 q 323 36 327 47 q 310 17 318 26 q 291 5 302 9 q 268 0 280 0 l 164 0 l 60 0 q 36 5 47 0 q 17 17 26 9 q 5 36 9 26 q 0 60 0 47 l 0 647 q 5 670 0 660 q 17 689 9 681 q 36 702 26 697 q 59 707 47 707 q 36 712 47 707 q 17 724 26 716 q 5 743 9 732 q 0 766 0 754 l 0 1329 q 5 1353 0 1342 q 17 1371 9 1363 q 36 1384 26 1380 q 60 1389 47 1389 l 164 1389 l 268 1389 q 291 1384 280 1389 q 310 1371 302 1380 q 323 1353 318 1363 q 327 1329 327 1342 l 327 766 l 327 766 m 164 1270 l 154 1270 l 154 766 l 164 766 l 174 766 l 174 1270 l 164 1270 m 164 119 l 174 119 l 174 647 l 164 647 l 154 647 l 154 119 l 164 119 z "},"9":{"ha":347,"x_min":0,"x_max":327,"o":"m 268 1389 q 291 1384 280 1389 q 310 1371 302 1380 q 323 1353 318 1363 q 327 1329 327 1342 l 327 60 q 323 36 327 47 q 310 17 318 26 q 291 5 302 9 q 268 0 280 0 l 60 0 q 36 5 47 0 q 17 17 26 9 q 5 36 9 26 q 0 60 0 47 l 0 627 l 154 627 l 154 119 l 174 119 l 174 647 l 0 647 l 0 766 l 0 1329 q 5 1353 0 1342 q 17 1371 9 1363 q 36 1384 26 1380 q 60 1389 47 1389 l 268 1389 l 268 1389 m 174 766 l 174 1270 l 154 1270 l 154 766 l 174 766 z "}," ":{"ha":154,"x_min":0,"x_max":0,"o":""},"a":{"ha":347,"x_min":0,"x_max":327,"o":"m 268 982 q 291 977 280 982 q 310 965 302 973 q 323 946 318 957 q 327 923 327 935 l 327 0 l 60 0 q 36 5 47 0 q 17 17 26 9 q 5 36 9 26 q 0 60 0 47 l 0 432 l 0 551 l 174 551 l 174 863 l 154 863 l 154 571 l 0 571 l 0 923 q 5 946 0 935 q 17 965 9 957 q 36 977 26 973 q 60 982 47 982 l 268 982 l 268 982 m 174 119 l 174 432 l 154 432 l 154 119 l 174 119 z "},"b":{"ha":347,"x_min":0,"x_max":327,"o":"m 268 982 q 291 977 280 982 q 310 965 302 973 q 323 946 318 957 q 327 923 327 935 l 327 60 q 323 36 327 47 q 310 17 318 26 q 291 5 302 9 q 268 0 280 0 l 0 0 l 0 1389 l 154 1389 l 154 982 l 268 982 l 268 982 m 154 119 l 174 119 l 174 863 l 154 863 l 154 119 z "},"c":{"ha":347,"x_min":0,"x_max":327,"o":"m 174 511 l 174 863 l 154 863 l 154 119 l 174 119 l 174 491 l 327 491 l 327 60 q 323 36 327 47 q 310 17 318 26 q 291 5 302 9 q 268 0 280 0 l 60 0 q 36 5 47 0 q 17 17 26 9 q 5 36 9 26 q 0 60 0 47 l 0 923 q 5 946 0 935 q 17 965 9 957 q 36 977 26 973 q 60 982 47 982 l 268 982 q 291 977 280 982 q 310 965 302 973 q 323 946 318 957 q 327 923 327 935 l 327 511 l 174 511 z "},"d":{"ha":347,"x_min":0,"x_max":327,"o":"m 327 1389 l 327 0 l 60 0 q 36 5 47 0 q 17 17 26 9 q 5 36 9 26 q 0 60 0 47 l 0 923 q 5 946 0 935 q 17 965 9 957 q 36 977 26 973 q 60 982 47 982 l 174 982 l 174 1389 l 327 1389 m 174 119 l 174 863 l 154 863 l 154 119 l 174 119 z "},"e":{"ha":347,"x_min":0,"x_max":327,"o":"m 268 982 q 291 977 280 982 q 310 965 302 973 q 323 946 318 957 q 327 923 327 935 l 327 432 l 154 432 l 154 119 l 174 119 l 174 412 l 327 412 l 327 60 q 323 36 327 47 q 310 17 318 26 q 291 5 302 9 q 268 0 280 0 l 60 0 q 36 5 47 0 q 17 17 26 9 q 5 36 9 26 q 0 60 0 47 l 0 923 q 5 946 0 935 q 17 965 9 957 q 36 977 26 973 q 60 982 47 982 l 268 982 l 268 982 m 174 551 l 174 863 l 154 863 l 154 551 l 174 551 z "},"g":{"ha":347,"x_min":0,"x_max":327,"o":"m 327 -347 q 323 -370 327 -359 q 310 -389 318 -381 q 291 -402 302 -397 q 268 -407 280 -407 l 60 -407 q 36 -402 47 -407 q 17 -389 26 -397 q 5 -370 9 -381 q 0 -347 0 -359 l 0 -20 l 154 -20 l 154 -288 l 174 -288 l 174 0 l 0 0 l 0 923 q 5 946 0 935 q 17 965 9 957 q 36 977 26 973 q 60 982 47 982 l 327 982 l 327 -347 m 174 119 l 174 863 l 154 863 l 154 119 l 174 119 z "},"h":{"ha":347,"x_min":0,"x_max":327,"o":"m 268 982 q 291 977 280 982 q 310 965 302 973 q 323 946 318 957 q 327 923 327 935 l 327 0 l 174 0 l 174 863 l 154 863 l 154 0 l 0 0 l 0 1389 l 154 1389 l 154 982 l 268 982 l 268 982 z "},"j":{"ha":347,"x_min":0,"x_max":327,"o":"m 174 982 l 327 982 l 327 -347 q 323 -370 327 -360 q 310 -389 318 -381 q 291 -402 302 -397 q 268 -407 280 -407 l 60 -407 q 36 -402 47 -407 q 17 -389 26 -397 q 5 -370 9 -381 q 0 -347 0 -360 l 0 -347 l 0 432 l 154 432 l 154 -288 l 174 -288 l 174 982 m 327 1389 l 327 1002 l 174 1002 l 174 1389 l 327 1389 z "},"k":{"ha":347,"x_min":0,"x_max":327,"o":"m 268 491 q 291 487 280 491 q 310 474 302 482 q 323 455 318 466 q 327 432 327 444 l 327 431 l 327 0 l 174 0 l 174 432 l 154 432 l 154 0 l 0 0 l 0 1389 l 154 1389 l 154 551 l 174 551 l 174 982 l 327 982 l 327 551 l 327 551 q 323 527 327 538 q 310 509 318 517 q 291 496 302 501 q 268 491 280 491 l 268 491 l 268 491 z "},"n":{"ha":347,"x_min":0,"x_max":327,"o":"m 268 982 q 291 977 280 982 q 310 965 302 973 q 323 946 318 957 q 327 923 327 935 l 327 0 l 174 0 l 174 863 l 154 863 l 154 0 l 0 0 l 0 982 l 268 982 l 268 982 z "},"o":{"ha":347,"x_min":0,"x_max":327,"o":"m 268 982 q 291 977 280 982 q 310 965 302 973 q 323 946 318 957 q 327 923 327 935 l 327 60 q 323 36 327 47 q 310 17 318 26 q 291 5 302 9 q 268 0 280 0 l 60 0 q 36 5 47 0 q 17 17 26 9 q 5 36 9 26 q 0 60 0 47 l 0 923 q 5 946 0 935 q 17 965 9 957 q 36 977 26 973 q 60 982 47 982 l 268 982 l 268 982 m 154 119 l 174 119 l 174 863 l 154 863 l 154 119 z "},"p":{"ha":347,"x_min":0,"x_max":327,"o":"m 268 982 q 291 977 280 982 q 310 965 302 973 q 323 946 318 957 q 327 923 327 935 l 327 60 q 323 36 327 47 q 310 17 318 26 q 291 5 302 9 q 268 0 280 0 l 154 0 l 154 -407 l 0 -407 l 0 982 l 268 982 l 268 982 m 154 119 l 174 119 l 174 863 l 154 863 l 154 119 z "},"q":{"ha":347,"x_min":0,"x_max":327,"o":"m 327 982 l 327 -407 l 174 -407 l 174 0 l 60 0 q 36 5 47 0 q 17 17 26 9 q 5 36 9 26 q 0 60 0 47 l 0 923 q 5 946 0 935 q 17 965 9 957 q 36 977 26 973 q 60 982 47 982 l 327 982 m 174 119 l 174 863 l 154 863 l 154 119 l 174 119 z "},"r":{"ha":347,"x_min":0,"x_max":327,"o":"m 268 982 q 291 977 280 982 q 310 965 302 973 q 323 946 318 957 q 327 923 327 935 l 327 407 l 174 407 l 174 863 l 154 863 l 154 0 l 0 0 l 0 982 l 268 982 l 268 982 z "},"s":{"ha":347,"x_min":0,"x_max":327,"o":"m 174 571 l 174 863 l 154 863 l 154 551 l 327 551 l 327 60 q 323 36 327 47 q 310 17 318 26 q 291 5 302 9 q 268 0 280 0 l 60 0 q 36 5 47 0 q 17 17 26 9 q 5 36 9 26 q 0 60 0 47 l 0 412 l 154 412 l 154 119 l 174 119 l 174 432 l 0 432 l 0 923 q 5 946 0 935 q 17 965 9 957 q 36 977 26 973 q 60 982 47 982 l 268 982 q 291 977 280 982 q 310 965 302 973 q 323 946 318 957 q 327 923 327 935 l 327 571 l 174 571 z "},"u":{"ha":347,"x_min":0,"x_max":327,"o":"m 327 0 l 60 0 q 36 5 47 0 q 17 17 26 9 q 5 36 9 26 q 0 60 0 47 l 0 982 l 154 982 l 154 119 l 174 119 l 174 982 l 327 982 l 327 0 z "},"v":{"ha":347,"x_min":0,"x_max":327,"o":"m 327 982 l 327 0 l 327 0 l 0 0 l 0 982 l 154 982 l 154 119 l 174 119 l 174 982 l 327 982 l 327 982 z "},"x":{"ha":347,"x_min":0,"x_max":327,"o":"m 268 491 q 291 487 280 491 q 310 474 302 482 q 323 455 318 466 q 327 432 327 444 l 327 431 l 327 0 l 174 0 l 174 432 l 154 432 l 154 0 l 0 0 l 0 431 l 0 432 q 5 455 0 444 q 17 474 9 466 q 36 487 26 482 q 60 491 47 491 q 36 496 47 491 q 17 509 26 501 q 5 527 9 517 q 0 551 0 538 l 0 982 l 154 982 l 154 551 l 174 551 l 174 982 l 327 982 l 327 551 l 327 551 q 323 527 327 538 q 310 509 318 517 q 291 496 302 501 q 268 491 280 491 l 268 491 l 268 491 l 268 491 z "},"y":{"ha":347,"x_min":0,"x_max":327,"o":"m 327 -347 q 323 -370 327 -359 q 310 -389 318 -381 q 291 -402 302 -397 q 268 -407 280 -407 l 268 -407 l 60 -407 q 36 -402 47 -407 q 17 -389 26 -397 q 5 -370 9 -381 q 0 -347 0 -359 l 0 -20 l 154 -20 l 154 -288 l 174 -288 l 174 0 l 0 0 l 0 982 l 154 982 l 154 119 l 174 119 l 174 982 l 327 982 l 327 -347 l 327 -347 z "},"z":{"ha":347,"x_min":0,"x_max":327,"o":"m 154 432 l 154 119 l 174 119 l 174 412 l 327 412 l 327 0 l 0 0 l 0 551 l 174 551 l 174 863 l 154 863 l 154 571 l 0 571 l 0 863 l 0 982 l 327 982 l 327 432 l 154 432 l 154 432 z "},"f":{"ha":213,"x_min":0,"x_max":193,"o":"m 174 1270 l 174 982 l 193 982 l 193 863 l 174 863 l 174 0 l 20 0 l 20 863 l 0 863 l 0 982 l 20 982 l 20 1329 q 25 1353 20 1342 q 37 1371 29 1363 q 56 1384 46 1380 q 79 1389 67 1389 l 193 1389 l 193 1270 l 174 1270 z "},"m":{"ha":523,"x_min":0,"x_max":501,"o":"m 441 982 q 465 977 454 982 q 484 965 476 973 q 496 946 492 957 q 501 923 501 935 l 501 0 l 347 0 l 347 863 l 327 863 l 327 0 l 174 0 l 174 863 l 154 863 l 154 0 l 0 0 l 0 982 l 441 982 l 441 982 z "},"i":{"ha":174,"x_min":0,"x_max":154,"o":"m 0 0 l 0 982 l 154 982 l 154 0 l 0 0 l 0 0 m 0 1389 l 154 1389 l 154 1002 l 0 1002 l 0 1389 l 0 1389 z "},"l":{"ha":174,"x_min":0,"x_max":154,"o":"m 0 1389 l 154 1389 l 154 0 l 0 0 l 0 1389 l 0 1389 z "},"w":{"ha":523,"x_min":0,"x_max":501,"o":"m 501 982 l 501 60 q 496 36 501 47 q 484 17 492 26 q 465 5 476 9 q 441 0 454 0 l 60 0 q 36 5 47 0 q 17 17 26 9 q 5 36 9 26 q 0 60 0 47 l 0 982 l 154 982 l 154 119 l 174 119 l 174 982 l 327 982 l 327 119 l 347 119 l 347 982 l 501 982 z "},"t":{"ha":213,"x_min":0,"x_max":193,"o":"m 174 863 l 174 119 l 193 119 l 193 0 l 79 0 q 56 5 67 0 q 37 17 46 9 q 25 36 29 26 q 20 60 20 47 l 20 863 l 0 863 l 0 982 l 20 982 l 20 1389 l 174 1389 l 174 982 l 193 982 l 193 863 l 174 863 z "},":":{"ha":174,"x_min":0,"x_max":154,"o":"m 154 847 l 154 407 l 0 407 l 0 847 l 154 847 m 0 387 l 154 387 l 154 0 l 0 0 l 0 387 z "},",":{"ha":173,"x_min":0,"x_max":152,"o":"m 0 386 l 152 386 l 152 -119 l 0 -119 l 0 386 z "},".":{"ha":174,"x_min":0,"x_max":154,"o":"m 0 387 l 154 387 l 154 0 l 0 0 l 0 387 z "}}}
